<svg xmlns="http://www.w3.org/2000/svg" viewBox="0 0 15.7 15.7"><defs><style>.a{fill:#337431;}.b{fill:#be2c27;}.c{fill:#fefefe;}.d{fill:#87401f;}.e{fill:#4d813d;}.f{fill:#578a49;}.g{fill:#97a298;}.h{fill:#d2d8d3;}.i{fill:#525a25;}.j{fill:#e9eceb;}.k{fill:#709869;}.l{fill:#d7cec8;}.m{fill:#724b3b;}</style></defs><title>BanderaCircular</title><path class="a" d="M5.3,15.1A6.8,6.8,0,0,1,.2,9.4C-.5,5.8.8,2.8,4.4.8A3.2,3.2,0,0,1,5.3.5c.8,1,.3,2.1.4,3.2s-.3,2.1.6,3a.8.8,0,0,1,0,.9c0,.1-.1.2-.2.3s-.2,0-.2.2-.2.6-.1.9v.6a4.9,4.9,0,0,0-.1,1.2C5.7,12.2,6.2,13.7,5.3,15.1Z"/><path class="b" d="M10.5.6a7.4,7.4,0,0,1,5.2,7.2,7.6,7.6,0,0,1-5.2,7.3c-.9-1.4-.4-2.8-.4-4.3S11.2,9.7,11.2,9s-.1.9-.9.6a1.3,1.3,0,0,1-.1-.6c.4-1.2-.1-2.3-.1-3.5A18.2,18.2,0,0,1,10,2.2,1.8,1.8,0,0,1,10.5.6Z"/><path class="c" d="M10.5.6v5c-.4.4-.6,0-.9-.2S7.2,4.8,6.7,6.5s-.2.4-.4.5-1-.8-1-1.6V.5A6.3,6.3,0,0,1,10.5.6Z"/><path class="c" d="M10.5,10.5v4.6a6.3,6.3,0,0,1-5.2,0V10.5c.9-.3,1.7.5,2.6.4a2.4,2.4,0,0,0,1.8-.5C10,10.3,10.3,10.1,10.5,10.5Z"/><path class="d" d="M6.3,7a1.5,1.5,0,0,0,.1-.9c-.6-.7.1-.9.4-1.1s2.3-.6,3.7.6a5.3,5.3,0,0,1,0,3.5.5.5,0,0,1-.4.2A18.4,18.4,0,0,1,6.8,9c-.8,0-1-.5-.7-1.2Z"/><path class="e" d="M6.1,7.8c.2.5,0,1,1.1.8a4.5,4.5,0,0,1,2.9.6c-.1.7-.7.7-1.2.8h-1c-.8-.4-1.8-.2-2.4-1.1s.4-.6.3-1h.3Z"/><path class="f" d="M7.9,11.2a3.9,3.9,0,0,1-2.6-.7c0-.4-.1-.8.2-1.1l1.2.5c.5.3,1.2.2,1.5.7A.5.5,0,0,1,7.9,11.2Z"/><path class="g" d="M6.6,10.2a1,1,0,0,1-1.1-.8V8.8l2.4.8C7.7,10.3,7,9.8,6.6,10.2Z"/><path class="h" d="M5.8,7.8H5.6c.2-.2.2,0,.2.1Z"/><path class="i" d="M10.5,10.5c-.3-.2-.5.1-.8.2l-.2-.4c0-.6.5-.7,1-.7l1.2-2A3.3,3.3,0,0,1,10.5,10.5Z"/><path class="j" d="M10.5,9.6c-.2.3-.8.2-.8.8a.5.5,0,0,1-.8.1A.5.5,0,0,1,9,9.7l1.1-.5h.4Z"/><path class="k" d="M9,10.3h.7v.3c-.4.6-1.1.6-1.8.5l.3-.4C8.1,10.1,8.6,10.2,9,10.3Z"/><path class="l" d="M8.8,7c.7.3,1.3.4,1.5,1.3A2,2,0,0,1,8.8,7Z"/><path class="m" d="M9,10.3c-.3.2-.7.1-.8.5l-1.6-.6a1.3,1.3,0,0,1,1.3-.6H9Z"/></svg>