<svg xmlns="http://www.w3.org/2000/svg" viewBox="0 0 16.7 13.1"><defs><style>.a{fill:#fff;}</style></defs><title>CabezaAero</title><path class="a" d="M4.7,11.1v.7H8.9l.5-.7Z"/><path class="a" d="M11.5,4l.5.2,1.1.5.7-.5c.3-.2.5-.1.6.1a11.5,11.5,0,0,1,1,2.4.4.4,0,0,1-.2.4h-.4a.4.4,0,0,0-.3.4V9a1,1,0,0,1-1,1H11.7a1.3,1.3,0,0,1-1.3-1.3V5.1A1,1,0,0,1,11.5,4Z"/><path class="a" d="M8.5,10H2.4v.6H9.5a3.1,3.1,0,0,0,.3-1.2V4.8a1,1,0,0,1,.9-1.1c0-.1,0-.1.1-.1a9.6,9.6,0,0,1,5.5.5c.2.1.2,0,.2-.1a2.2,2.2,0,0,0-2.2-2.3,4.1,4.1,0,0,0-2,.5h-.1L11,1.5c-.1,0-.1-.1,0-.1a10,10,0,0,1,2.5,0c.1.1.2,0,.1-.1s0-.1-.1-.2a1,1,0,0,0-.7-.5A12.2,12.2,0,0,0,9.1.1,17.3,17.3,0,0,0,5.7.5H5.4c-.1,0-.1.1,0,.1s.1.1.1.2.1.1,0,.2L2.7,3.6H4.6c.2,0,.3.1.3.2a.3.3,0,0,1-.3.3H2.2l-.8.7H4.7l.2.2c0,.1-.1.3-.2.3H.9L.1,6H6.6c.2,0,.2.1.3.2s-.1.2-.3.2H.1v.7H6.6c.2,0,.3.2.2.3l-.2.2H.1v.7H8.6c.1,0,.2.1.2.3l-.2.2H2.4v.7H8.6l.2.2c0,.1-.1.3-.2.3Z"/><path class="a" d="M4.7,12.3V13H6.1a3.4,3.4,0,0,0,2.1-.7Z"/></svg>