<svg xmlns="http://www.w3.org/2000/svg" viewBox="0 0 22.2 14.5"><defs><style>.a{fill:#fcfcfd;}</style></defs><title>Carta</title><path class="a" d="M21.9,2.3C22,.9,21.4.2,20,.2H2.2C.8.2.2.9.2,2.3q.1,4.9,0,9.9c0,1.4.6,2.1,2.1,2.1H19.7c1.5,0,2.3-.5,2.3-2.1C21.9,8.9,21.9,5.6,21.9,2.3Zm-2.7-.8L11.8,6.2a1.3,1.3,0,0,1-1.6-.1L3,1.5Zm.3,11.6H2.7c-.9,0-1.4-.1-1.4-1.2.1-3.2.1-6.5.1-10.1,2.8,1.8,5.5,3.4,8,5.1a2.5,2.5,0,0,0,3.4,0c2.5-1.7,5.1-3.3,8.1-5.1,0,3.6-.1,6.9,0,10.1C20.9,13,20.4,13.1,19.5,13.1Z"/></svg>