<svg xmlns="http://www.w3.org/2000/svg" viewBox="0 0 162.7 4.3"><defs><style>.a{fill:#676767;}.b{fill:#192541;}.c{fill:#676768;}</style></defs><title>Flight</title><path class="a" d="M81.1,1.9h76.3c.6,0,1,0,1.2-.7A2.1,2.1,0,0,1,160.9,0a2.2,2.2,0,0,1,1.8,2,2.1,2.1,0,0,1-1.4,2.2,2.1,2.1,0,0,1-2.5-.7c-.3-.6-.7-.6-1.2-.6H81.1A.9.9,0,0,1,81.1,1.9Z"/><path class="b" d="M81.1,1.9v1H4.2a.9.9,0,0,1,.2-1H81.1Z"/><path class="c" d="M4.4,1.9a1.6,1.6,0,0,1-.2,1A2.2,2.2,0,0,1,1.7,4.3,2.3,2.3,0,0,1,0,2.2,2.2,2.2,0,0,1,1.9,0,2.3,2.3,0,0,1,4.3,1.6.4.4,0,0,1,4.4,1.9Z"/></svg>