<svg xmlns="http://www.w3.org/2000/svg" xmlns:xlink="http://www.w3.org/1999/xlink" viewBox="0 0 85 12.9"><defs><style>.a{fill:none;}.b{fill:#fff;}.c{clip-path:url(#a);}.d{fill:#dc0c15;}</style><clipPath id="a"><rect class="a" width="85" height="12.88"/></clipPath></defs><title>logo</title><path class="b" d="M71.7,9.7a.5.5,0,0,1-.5-.4.5.5,0,0,1,.5-.4.4.4,0,1,1,0,.8Zm0-.9a.6.6,0,0,0-.6.5.6.6,0,0,0,.6.5.5.5,0,0,0,0-1Z"/><path class="b" d="M71.5,9.3V9.1h.3a.1.1,0,0,1-.1.1Zm.2,0c.1,0,.2,0,.2-.1L71.7,9h-.2v.6h0V9.3h.1l.2.3h.1l-.2-.3Z"/><g class="c"><path class="b" d="M11.3,3.9h.6l1.1.6.7-.6a.6.6,0,0,1,.6.1c.2.5.7,1.6,1,2.5s0,.3-.2.3h-.5c-.2,0-.2.2-.2.4V8.9a1,1,0,0,1-1,.9H11.5a1.3,1.3,0,0,1-1.3-1.2V4.9a1.1,1.1,0,0,1,1.1-1Z"/><path class="b" d="M8.4,9.8H2.3v.7H9.4a3.1,3.1,0,0,0,.3-1.2V4.7a1.1,1.1,0,0,1,.9-1.2h0a9.5,9.5,0,0,1,5.5.5c.3.1.3-.1.3-.1a2.2,2.2,0,0,0-2.2-2.3,4.7,4.7,0,0,0-2.1.5h0a2,2,0,0,0-1.2-.7c-.1,0-.1-.2,0-.2a8.8,8.8,0,0,1,2.5.1c.1,0,.1,0,.1-.1s-.1-.1-.1-.2a1.3,1.3,0,0,0-.7-.5A13.2,13.2,0,0,0,9,0,16.2,16.2,0,0,0,5.6.4H5.3V.6l.2.2V1L2.6,3.5H4.5a.2.2,0,0,1,.2.2c0,.2-.1.3-.2.3H2.1l-.8.7H4.5c.2,0,.2.1.2.2s0,.2-.2.2H.8L0,5.8H6.5c.1,0,.2.2.2.3a.2.2,0,0,1-.2.2H0V7H6.5c.1,0,.2.1.2.3a.2.2,0,0,1-.2.2H0v.7H8.5a.2.2,0,0,1,.2.2c0,.1-.1.3-.2.3H2.3v.6H8.5c.1,0,.2.2.2.3a.2.2,0,0,1-.2.2Z"/><path class="b" d="M4.5,12.2v.7H6a3.4,3.4,0,0,0,2.1-.7Z"/></g><path class="b" d="M4.5,11v.7H8.7l.5-.7Z"/><path class="b" d="M68.4,9.1h-.2l-.7-.2c0-.1-.1-.1-.1-.2a2.6,2.6,0,0,1-.5-1.2c-.1-1,.1-2.4,1.3-2.5h.2c1.2.1,1.4,1.5,1.3,2.5a1.8,1.8,0,0,1-.5,1.2c0,.1-.1.1-.1.2l-.7.2Zm2.8-2.3h0a3.3,3.3,0,0,0-.4-1.4,3.2,3.2,0,0,0-5,0,3.3,3.3,0,0,0-.4,1.4h0A2.7,2.7,0,0,0,68,10h.6a2.7,2.7,0,0,0,2.6-3.2Z"/><path class="b" d="M59.6,5.5V4.3H58.2V9.8h1.4V5.5Z"/><path class="b" d="M51.2,9h-1V7.4h1.6V6.5H50.2V5.1h2.1V4.3H48.7s.1.8.1,1.2V8.6c0,.4-.1,1.1-.1,1.2h3.7V9Z"/><path class="b" d="M27.2,9h-1V7.4h1.7V6.5H26.2V5.1h2.1V4.3H24.8V9.8h3.6V9Z"/><path class="b" d="M55.9,6.9l1.6-2.6H56.4a9.6,9.6,0,0,0-.9,1.6h-.1l-.9-1.7H52.8l1.6,2.9L52.8,9.8h1.1l1-1.7,1,1.7h1.7L55.9,6.9Z"/><path class="b" d="M64.1,9.1a2,2,0,0,1-2-2.1c.1-1,.5-1.9,1.6-1.9a2.5,2.5,0,0,1,1.4.2V4.4a3.5,3.5,0,0,0-1.2-.2,3.1,3.1,0,0,0-2.4.8,2.7,2.7,0,0,0-.9,2.1,2.5,2.5,0,0,0,1,2.1,3.2,3.2,0,0,0,2.3.8l1.5-.2V8.9l-1.1.2Z"/><path class="b" d="M45.6,3.5h1.6v.4l.5,5.9H46.2L46,7.6l-.2-2.1L44.4,9.8h-.9s-.4-1.5-.5-1.7l-.8-2.6s-.1,1.4-.2,2.1-.1,2.2-.1,2.2H40.6s.5-5.1.6-5.4a5.5,5.5,0,0,1,.1-.9h1.6l1.3,3.7,1.4-3.7Z"/><path class="b" d="M37.1,9.1h-.2l-.7-.2c0-.1-.1-.1-.1-.2a2.6,2.6,0,0,1-.5-1.2c-.1-1,.1-2.3,1.3-2.4h.2c1.2.1,1.4,1.4,1.3,2.4a1.8,1.8,0,0,1-.5,1.2c0,.1-.1.1-.1.2l-.7.2Zm2.8-2.3h0a3.3,3.3,0,0,0-.4-1.4A2.8,2.8,0,0,0,37,4.2a2.8,2.8,0,0,0-2.5,1.2,3.3,3.3,0,0,0-.4,1.4h0a2.6,2.6,0,0,0,2.6,3.1h.6a2.6,2.6,0,0,0,2.6-3.1Z"/><path class="b" d="M20.4,7.1l.6-2h.1l.7,2.1Zm4,2.7c0-.1-.3-.8-.5-1.3L22,3.5H20.5a10.4,10.4,0,0,0-.4,1.3L18.7,8.7l-.4,1.1h1.2l.4-1.2.2-.6h2l.3.9a4.7,4.7,0,0,1,.3.9Z"/><path class="b" d="M31.6,6.8a2.7,2.7,0,0,1-.9,0V5.2h1a.6.6,0,0,1,.3.6.8.8,0,0,1-.4.9Zm2.6,3-.8-1-1-1.6a1.4,1.4,0,0,0,1-1.4A1.1,1.1,0,0,0,33,4.7a1,1,0,0,0-.8-.3H29.3V9.8h1.4V7.6h.5l.9,1.7c.1.2.3.5.4.5Z"/><polygon class="b" points="82.7 1.4 82.7 1.4 82.7 1.3 82.8 1.4 82.8 1.4 82.8 1.4 82.7 1.6 82.6 1.6 82.7 1.4 82.7 1.4 82.7 1.4"/><g class="c"><polygon class="b" points="82.9 1.4 82.9 1.4 82.9 1.6 82.9 1.6 83 1.5 83.1 1.5 83 1.7 83 1.7 83 1.5 83 1.5 82.9 1.7 82.9 1.7 82.9 1.5 82.9 1.5 82.8 1.6 82.8 1.6 82.9 1.4 82.9 1.4 82.9 1.4"/><path class="b" d="M83.4,3.2h0a5.6,5.6,0,0,1,1.4,3.1,4.8,4.8,0,0,1-4.5,5.1,4.9,4.9,0,0,1-3.4-1h0a5,5,0,0,0,3.7,1.3A4.8,4.8,0,0,0,85,6.5a5,5,0,0,0-1.6-3.3Z"/></g><path class="b" d="M74.8,8.7c-.2.1-.2.2-.1.4s.2.3.3.2.1-.1.1-.3H75V8.5c.1-.1.1-.2.2-.2s.4,0,.6.4a.4.4,0,0,1-.2.6h-.1c.2-.1.2-.3.1-.5s-.2-.3-.3-.2-.1.1-.1.3h0c0,.2.1.2,0,.3s0,.2-.1.2-.4-.1-.5-.3a.5.5,0,0,1,.1-.7v.2Z"/><polygon class="b" points="74.7 7 75.4 6.3 75.4 6.6 74.8 7.1 75 7.3 75.4 7.3 75.4 7.5 74.2 7.5 74.2 7.3 74.7 7.3 74.7 7.3 74.8 7.3 74.7 7.3 74.7 7.2 74.2 6.6 74.1 6.4 74.7 7 74.7 7 74.7 7"/><path class="b" d="M75.2,5l.5.2v.2l-.4-.2-.9.3V5.3l.5-.2h.2V4.9l-.4-.4V4.3l.5.7Z"/><polygon class="b" points="76.1 2.7 75.8 3.1 76.6 3.7 76.4 3.9 75.6 3.3 75.3 3.6 75.2 3.5 75.9 2.6 76.1 2.7 76.1 2.7 76.1 2.7"/><polygon class="b" points="77.7 1.6 77.1 1.9 77.2 2.2 77.8 1.8 77.9 2 77.3 2.3 77.5 2.6 78.1 2.2 78.3 2.4 77.4 3 76.7 1.9 77.6 1.4 77.7 1.6 77.7 1.6 77.7 1.6"/><path class="b" d="M79.4,1.4V1.2a.3.3,0,0,1-.1.2v.3h.4l-.2-.2Zm.7.6h-.3V1.8h-.5v.3h-.3L79.1.9h.3L80.1,2Z"/><path class="b" d="M82.1,2.4h-.2V1.6h.1l-.2.2c0,.1-.1.1-.1.2l-.3.4h-.3V1.6h0a.3.3,0,0,0-.1-.2v0a.8.8,0,0,1-.1.4v.4h-.3L81,.9h.5v1l.2-.2h0l.4-.5h.4l-.4,1.2Z"/><path class="b" d="M82.1,6.5a1.6,1.6,0,0,1,.9-.4c.1,0,.2,0,.2.2s-.1.2-.4.3h-.9l.2-.2Zm-5,.4c-.3,0-.4-.1-.4-.3s0-.5,1.3-.6h.3a2.1,2.1,0,0,1-1.2.7Zm2.7-2.1-.8.7-.3.4h-.8a2.3,2.3,0,0,0-1.4.4l-.2.3c0,.3.4.5.5.5a1.2,1.2,0,0,0,1.4-.2l.9-.7.6.2h.2a3,3,0,0,1-.8.8h0l-1,.6a1.1,1.1,0,0,1-.6,0h0a.7.7,0,0,0,.8.2,1.7,1.7,0,0,0,1.2-.6l.5-.5.4-.4.8.2h0l-.5.5-.4.4-.9.8a2.1,2.1,0,0,1-1.1.5h-.6a1.9,1.9,0,0,0,.9.4,3.5,3.5,0,0,0,1.7-.9l.9-.9.5-.6h1c.5,0,.9-.2.9-.5a.3.3,0,0,0-.3-.3l-.6-.2a1.5,1.5,0,0,0-1.1.5l-.3.2h-.1l-.7-.2.6-.5a2.4,2.4,0,0,1,1.1-.6h.6a1.1,1.1,0,0,0-.9-.3,2.4,2.4,0,0,0-1.1.4l-.8.7h-.8l.2-.2.7-.7a1.9,1.9,0,0,1,1.4-.6c.4,0,.6,0,.8.2h0a1.3,1.3,0,0,0-1.1-.5,2.4,2.4,0,0,0-1.4.6Z"/><path class="d" d="M40.8,12.7s2.5-2.1,8.8-2.1c4.8,0,7.7,1.6,13.3,1.6a19.5,19.5,0,0,0,8.4-1.8s-3,2.3-8.9,2.3-7.8-1.5-13.7-1.5-7.9,1.5-7.9,1.5Z"/></svg>