<svg xmlns="http://www.w3.org/2000/svg" viewBox="0 0 36.8 47.6"><defs><style>.a{fill:#fdfefe;}.b{fill:#fefeff;}</style></defs><title>Reloj</title><path class="a" d="M12.7,2.6A7.2,7.2,0,0,0,4.9.4,7.5,7.5,0,0,0,0,7.6,9.2,9.2,0,0,0,.1,9.1c.5,2.1,1,2.3,2.9,1.3l9.2-5.3C13.5,4.4,13.7,3.7,12.7,2.6ZM10.8,4.5,3.3,8.8c-.5.3-1,.9-1.5.6s-.5-1.2-.6-2A6.1,6.1,0,0,1,4.8,1.9a5.5,5.5,0,0,1,6,.8C11.7,3.3,11.9,3.8,10.8,4.5Z"/><path class="a" d="M29.5,0a7,7,0,0,0-5.6,2.9c-.7.8-.7,1.4.3,2,3.4,1.9,6.8,3.8,10.1,5.8.9.5,1.5.4,1.9-.7A7.2,7.2,0,0,0,29.5,0Zm5.9,8.5c-.2.9-.5,1.1-1.3.6L25.7,4.2c-.8-.4-.8-.8-.1-1.3a5.7,5.7,0,0,1,6.2-1.2,6,6,0,0,1,3.7,5.6C35.5,7.7,35.4,8.1,35.4,8.5Z"/><path class="b" d="M19.8,20.6V14.9c0-.6.2-1.5-.7-1.5s-.6.9-.6,1.5c0,3.3-.1,6.7,0,10.1a2.9,2.9,0,0,1-1.3,2.7c-2,1.3-3.9,2.7-5.8,4.1-.4.3-1.1.6-.7,1.2s1,.2,1.5-.2c2-1.4,4-3,6.2-4.3a3.1,3.1,0,0,0,1.4-3C19.7,23.8,19.8,22.2,19.8,20.6Z"/><path class="b" d="M29.9,41.4a1.3,1.3,0,0,1,.3-2.1A17.1,17.1,0,0,0,36,26.4c-.1-1.4-.1-2.6-.3-3.8a17.8,17.8,0,0,0-32-6.7A18,18,0,0,0,6.2,39.2c1,.9,1,1.4.4,2.4s-1.7,3-2.6,4.6-.6,1,0,1.3.9-.3,1.1-.7l2.8-5c.4-.6.7-.8,1.4-.4a17.7,17.7,0,0,0,17.9.1c.9-.5,1.2-.3,1.6.4s1.6,3,2.5,4.4.6,1.8,1.5,1.2-.1-1.3-.4-1.9S30.8,42.7,29.9,41.4ZM18.2,42.7A16.8,16.8,0,0,1,1.7,26,16.6,16.6,0,1,1,18.2,42.7Z"/></svg>