<svg xmlns="http://www.w3.org/2000/svg" viewBox="0 0 20.2 20.7"><defs><style>.a{fill:#fff;}</style></defs><title>Sesion</title><path class="a" d="M10,.4a10.1,10.1,0,0,0-9.8,10,10,10,0,0,0,10,9.9,10.1,10.1,0,0,0,9.9-10A10.2,10.2,0,0,0,10,.4ZM4.6,17.6l2.9-1.5c1.1-.6,1.5-1.5.6-2.5s-1.3-4.1-1-6.3,1.5-2.1,3.1-2.1a2.8,2.8,0,0,1,3.1,2.2c.3,2.2.6,4.3-1.1,6.2a1.5,1.5,0,0,0,.5,2.4,26.9,26.9,0,0,0,2.9,1.6A8.5,8.5,0,0,1,4.6,17.6ZM17,16.5c-.2.3-.5.7-1,.4l-3-1.6c-.6-.4-.7-.9-.2-1.4,1.8-2.1,1.4-4.5,1.1-6.9S12,4.3,10.1,4.3,6.6,5.5,6.4,7.2s-.6,4.7,1.2,6.7c.1.1.3.4.2.5-.4,1.6-2,1.6-3.1,2.3a.9.9,0,0,1-1.5-.2,8.7,8.7,0,0,1-2.3-6,9.1,9.1,0,0,1,6.6-9A9.3,9.3,0,0,1,18.1,5.7,9.1,9.1,0,0,1,17,16.5Z"/></svg>